# xmcd
#
# Track frame offsets:
#	150
#	16825
#	32937
#	53662
#	75550
#	93475
#	113275
#	136462
#	155587
#	176287
#
# Disc length: 2686 seconds
#
# Revision: 1
# Processed by: cddbd v1.5.2PL0 Copyright (c) Steve Scherf et al.
# Submitted via: audiograbber 1.83.01
#
DISCID=6d0a7c0a
DTITLE=月光 海洋 夢 - 邰正宵
DYEAR=1996
DGENRE=臺灣流行音樂
TTITLE0=發掘話題
TTITLE1=所以
TTITLE2=月光 海洋 夢
TTITLE3=寂寞玩具
TTITLE4=真自由
TTITLE5=早餐\
TTITLE6=不想知道
TTITLE7=自戀
TTITLE8=最愛的戲
TTITLE9=用情太深(真情回憶版)
EXTD=
EXTT0=
EXTT1=
EXTT2=
EXTT3=
EXTT4=
EXTT5=
EXTT6=
EXTT7=
EXTT8=
EXTT9=
PLAYORDER=
